<?xml version="1.0" encoding="utf-8"?>
<!-- Generator: Adobe Illustrator 17.0.0, SVG Export Plug-In . SVG Version: 6.00 Build 0)  -->
<!DOCTYPE svg PUBLIC "-//W3C//DTD SVG 1.1//EN" "http://www.w3.org/Graphics/SVG/1.1/DTD/svg11.dtd">
<svg version="1.1" id="Capa_1" xmlns="http://www.w3.org/2000/svg" xmlns:xlink="http://www.w3.org/1999/xlink" x="0px" y="0px"
	 width="676.685px" height="900px" viewBox="461.655 0 676.685 900" enable-background="new 461.655 0 676.685 900"
	 xml:space="preserve">
<path fill="#FFFFFF" d="M472.662,236.538c-22.054,82.321-10.736,168.307,31.877,242.118
	c56.831,98.433,162.814,159.582,276.588,159.582c42.94,0,85.486-8.827,124.944-25.679l165.954,287.436l66.316-38.289L972.381,574.26
	c57.045-42.643,97.968-102.701,116.684-172.565c22.054-82.321,10.736-168.307-31.877-242.118C1000.362,61.15,894.379,0,780.605,0
	c-55.708,0-110.782,14.8-159.276,42.797C547.519,85.409,494.726,154.217,472.662,236.538z M780.605,76.577
	c86.502,0,167.077,46.477,210.272,121.294c32.387,56.096,40.989,121.447,24.224,184.011
	c-16.76,62.564-56.887,114.861-112.982,147.243c-36.87,21.283-78.701,32.535-120.987,32.535
	c-86.502,0-167.077-46.477-210.272-121.294c-32.387-56.096-40.989-121.442-24.224-184.006
	c16.765-62.569,56.887-114.861,112.982-147.248C696.488,87.829,738.319,76.577,780.605,76.577z"/>
</svg>
